<?xml version="1.0" encoding="utf-8"?>
<!-- Generator: Adobe Illustrator 17.0.0, SVG Export Plug-In . SVG Version: 6.00 Build 0)  -->
<!DOCTYPE svg PUBLIC "-//W3C//DTD SVG 1.1//EN" "http://www.w3.org/Graphics/SVG/1.1/DTD/svg11.dtd">
<svg version="1.1" id="Layer_1" xmlns="http://www.w3.org/2000/svg" xmlns:xlink="http://www.w3.org/1999/xlink" x="0px" y="0px"
	 width="92.168px" height="92.168px" viewBox="0 0 92.168 92.168" enable-background="new 0 0 92.168 92.168" xml:space="preserve">
<path fill-rule="evenodd" clip-rule="evenodd" fill="#434A54" d="M52.032,92.168h24.857c3.725,0,4.325-4.557,1.802-6.026
	c-0.25-0.145-0.19-0.515,0.094-0.58c4.741-1.078,4.343-8.573-1.195-8.573h-1.199c-0.312,0-0.447-0.387-0.2-0.569
	c2.014-1.479,1.386-5.332-1.883-5.332c-0.223,0-0.5,0.016-0.547-0.268L68.59,39.188c-0.03-0.18,0.106-0.347,0.294-0.364
	c4.013-0.373,3.881-6.418-0.396-6.418h-2.881c-1.65,0-1.498,0.137-0.162-0.593c4.971-2.717,8.205-7.81,9.085-15.035
	c0.013-0.107-0.026-0.206-0.111-0.277c-0.463-0.387-0.927-0.774-1.392-1.161c-0.166-0.138-0.426-0.083-0.516,0.11
	c-0.678,1.455-1.357,2.912-2.034,4.368c-0.1,0.215-0.405,0.252-0.558,0.067c-1.191-1.445-1.417-4.089-5.881-3.048
	c-0.277,0.065-0.504-0.222-0.366-0.462c1.206-2.089-0.358-4.83-2.955-4.83c-2.597,0-4.161,2.741-2.954,4.83
	c0.138,0.24-0.089,0.527-0.366,0.462c-4.464-1.041-4.69,1.604-5.881,3.048c-0.153,0.184-0.458,0.148-0.559-0.067
	c-0.678-1.456-1.356-2.912-2.034-4.368c-0.09-0.193-0.35-0.248-0.516-0.11c-0.464,0.387-0.928,0.774-1.391,1.161
	c-0.085,0.071-0.124,0.17-0.112,0.277c0.876,7.188,3.423,12.415,8.879,15.027c0.903,0.433,1.151,0.601-0.147,0.601h-2.69
	c-4.277,0-4.409,6.045-0.395,6.418c0.188,0.017,0.323,0.184,0.294,0.364l-5.068,30.994c-0.021,0.13,0.036,0.255,0.149,0.323
	c1.739,1.055,2.457,3.199,1.855,5.094c-0.05,0.158,0.029,0.326,0.181,0.389c4.141,1.706,5.052,7.458,1.771,10.468
	c-0.116,0.105-0.137,0.277-0.051,0.408c0.943,1.428,0.985,3.364,0.081,4.822C51.633,91.893,51.785,92.168,52.032,92.168
	L52.032,92.168z M14.388,92.168H47.86c3.45,0,3.893-4.305,1.328-5.409c-0.266-0.114-0.255-0.483,0.016-0.584
	c4.431-1.646,3.855-8.929-1.725-9.111c-0.308-0.01-0.435-0.39-0.189-0.569c1.967-1.431,1.333-5.087-1.9-5.087h-0.608
	c-0.166,0-0.306-0.116-0.328-0.275l-4.679-32.83c-0.025-0.177,0.108-0.34,0.295-0.359c3.702-0.362,3.568-5.735-0.402-5.735h-2.572
	c-0.229,0-0.39-0.221-0.311-0.427l5.16-13.367c0.648-1.678-0.515-2.927-2.694-2.928c-1.106,0-2.212,0-3.318,0
	c-0.129,0-0.24-0.066-0.297-0.176c-0.625-1.214-1.248-2.432-1.878-3.643c-0.417-0.802-0.185-1.438,0.985-0.696
	c1.634,1.039,3.389,1.892,5.084,2.838c0.269,0.149,0.589-0.114,0.475-0.391c-1.499-3.62-1.17-7.241,0.025-10.862
	c0.099-0.298-0.277-0.54-0.528-0.339c-1.4,1.12-2.918,2.117-4.199,3.361c-0.773,0.751-1.85,0.122-1.136-0.866
	c0.972-1.345,1.728-2.823,2.592-4.235c0.155-0.253-0.109-0.558-0.397-0.459c-3.564,1.225-7.505,1.225-11.069,0
	c-0.288-0.099-0.552,0.206-0.397,0.459c0.864,1.411,1.62,2.89,2.592,4.235c0.714,0.987-0.363,1.617-1.136,0.866
	c-1.28-1.244-2.799-2.241-4.199-3.361c-0.251-0.2-0.626,0.041-0.528,0.339c1.196,3.62,1.524,7.241,0.026,10.862
	c-0.115,0.277,0.206,0.54,0.474,0.391c1.695-0.946,3.45-1.799,5.084-2.838c1.17-0.742,1.401-0.107,0.985,0.696
	c-0.63,1.212-1.253,2.429-1.878,3.643c-0.057,0.11-0.168,0.176-0.297,0.176c-1.106,0-2.212,0-3.318,0
	c-2.178,0.001-3.342,1.25-2.694,2.928l5.159,13.367c0.08,0.206-0.081,0.427-0.31,0.427h-2.571c-3.971,0-4.104,5.373-0.402,5.735
	c0.186,0.019,0.319,0.181,0.294,0.359l-4.679,32.83c-0.022,0.158-0.162,0.275-0.328,0.275h-0.608c-3.233,0-3.867,3.656-1.9,5.087
	c0.246,0.179,0.119,0.559-0.189,0.569c-5.581,0.182-6.156,7.466-1.726,9.112c0.271,0.101,0.282,0.47,0.016,0.584
	C10.495,87.863,10.938,92.168,14.388,92.168L14.388,92.168z"/>
</svg>
