<?xml version="1.0" encoding="utf-8"?>
<!-- Generator: Adobe Illustrator 17.0.0, SVG Export Plug-In . SVG Version: 6.00 Build 0)  -->
<!DOCTYPE svg PUBLIC "-//W3C//DTD SVG 1.1//EN" "http://www.w3.org/Graphics/SVG/1.1/DTD/svg11.dtd">
<svg version="1.1" id="Layer_1" xmlns="http://www.w3.org/2000/svg" xmlns:xlink="http://www.w3.org/1999/xlink" x="0px" y="0px"
	 width="92.168px" height="92.168px" viewBox="0 0 92.168 92.168" enable-background="new 0 0 92.168 92.168" xml:space="preserve">
<path fill-rule="evenodd" clip-rule="evenodd" fill="#434A54" d="M25.526,21.643c2.552-0.858,2.346-4.658-0.619-5.04
	c-0.476-0.061-0.649-0.672-0.274-0.973C30.865,10.624,27.499,0,19.137,0S7.411,10.622,13.641,15.629
	c0.374,0.301,0.202,0.913-0.275,0.973c-2.972,0.379-3.179,4.188-0.619,5.043c0.25,0.082,0.402,0.323,0.372,0.584
	c-0.424,3.643-1.868,6.96-4.594,10.073c-2.723,3.108-3.768,5.921-2.814,7.97c0.113,0.244,0.036,0.53-0.185,0.684
	c-0.915,0.634-1.654,1.442-1.654,2.633c0,0.743,0,1.486,0,2.229c0,0.303,0.247,0.549,0.55,0.549c9.81,0,19.621,0,29.432,0
	c0.303,0,0.549-0.246,0.549-0.549c0-0.743,0-1.486,0-2.229c0-1.191-0.739-1.999-1.654-2.633c-0.222-0.154-0.298-0.439-0.185-0.684
	c0.955-2.049-0.092-4.862-2.814-7.97c-2.726-3.114-4.171-6.431-4.595-10.074C25.125,21.967,25.277,21.727,25.526,21.643
	L25.526,21.643z M79.419,67.445c2.553-0.857,2.345-4.658-0.619-5.04c-0.476-0.061-0.648-0.672-0.274-0.973
	c6.233-5.006,2.866-15.63-5.495-15.63c-8.362,0-11.727,10.622-5.497,15.63c0.374,0.301,0.202,0.912-0.275,0.973
	c-2.972,0.377-3.178,4.188-0.619,5.043c0.249,0.082,0.401,0.323,0.372,0.585c-0.425,3.643-1.868,6.959-4.594,10.071
	c-2.722,3.108-3.768,5.921-2.814,7.971c0.113,0.244,0.036,0.53-0.186,0.682c-0.915,0.635-1.654,1.444-1.654,2.634
	c0,0.743,0,1.486,0,2.229c0,0.303,0.247,0.549,0.55,0.549c9.811,0,19.621,0,29.432,0c0.303,0,0.549-0.246,0.549-0.549
	c0-0.743,0-1.486,0-2.229c0-1.19-0.739-1.999-1.654-2.634c-0.222-0.152-0.298-0.439-0.185-0.682
	c0.954-2.051-0.092-4.863-2.814-7.971c-2.726-3.113-4.171-6.429-4.594-10.074C79.018,67.768,79.171,67.528,79.419,67.445
	L79.419,67.445z M42.041,64.021v3.879c0,0.344-0.316,0.604-0.653,0.539c-8.631-1.662-15.385-8.331-16.884-17.019
	c-0.046-0.266-0.275-0.458-0.546-0.456c-3.75,0.032-8.181-0.041-11.203,0.074c-0.159,0.005-0.294,0.072-0.397,0.193
	c-0.103,0.121-0.146,0.265-0.127,0.423c1.863,15.272,14.024,27.368,29.325,29.136c0.278,0.032,0.487,0.264,0.487,0.545v4
	c0,0.464,0.548,0.719,0.903,0.421l12.98-10.928c0.264-0.222,0.259-0.635-0.01-0.849l-12.98-10.386
	C42.577,63.307,42.041,63.564,42.041,64.021L42.041,64.021z M45.433,9.721v3.845c0,0.3,0.242,0.545,0.541,0.55
	c16.382,0.259,29.906,12.302,32.471,28.021c0.054,0.333-0.205,0.638-0.542,0.638H66.586c-0.255,0-0.47-0.168-0.532-0.415
	c-2.277-9.051-10.361-15.799-20.057-16.052c-0.307-0.008-0.563,0.242-0.563,0.55v4.177c0,0.463-0.549,0.719-0.903,0.421
	L31.55,20.527c-0.264-0.222-0.259-0.634,0.011-0.849l12.98-10.386C44.897,9.007,45.433,9.264,45.433,9.721L45.433,9.721z"/>
</svg>
