<?xml version="1.0" encoding="utf-8"?>
<!-- Generator: Adobe Illustrator 17.0.0, SVG Export Plug-In . SVG Version: 6.00 Build 0)  -->
<!DOCTYPE svg PUBLIC "-//W3C//DTD SVG 1.1//EN" "http://www.w3.org/Graphics/SVG/1.1/DTD/svg11.dtd">
<svg version="1.1" id="Layer_1" xmlns="http://www.w3.org/2000/svg" xmlns:xlink="http://www.w3.org/1999/xlink" x="0px" y="0px"
	 width="92.168px" height="92.168px" viewBox="0 0 92.168 92.168" enable-background="new 0 0 92.168 92.168" xml:space="preserve">
<path fill-rule="evenodd" clip-rule="evenodd" fill="#fff" d="M17.653,92.168h56.862c1.881,0,3.42-1.539,3.42-3.42v-6.891
	c0-1.881-1.539-3.42-3.42-3.42c-0.462,0-1.482,0.172-1.873-0.086C57.164,68.206,53.01,53.289,53.433,38.502
	c0.016-0.57,0.608-0.512,1.001-0.512c6.286,0,6.286-9.525,0-9.525H49.69c-0.731,0-0.661-1.274-0.09-1.425
	C64.763,23.04,62.039,0,46.084,0C30.155,0,27.401,22.979,42.52,27.027c0.573,0.153,0.624,1.439-0.102,1.439h-4.683
	c-6.287,0-6.287,9.525,0,9.525c0.392,0,0.984-0.059,1.001,0.512c0.423,14.787-3.732,29.704-19.21,39.849
	c-0.393,0.258-1.41,0.086-1.873,0.086c-1.881,0-3.42,1.538-3.42,3.42v6.891C14.233,90.629,15.772,92.168,17.653,92.168
	L17.653,92.168z M35.155,12.078c-0.828,4.152,3.777,5.842,4.082,2.102c0.278-3.408,2.368-6.271,5.751-7.978
	c2.633-1.329,1.922-3.421-0.68-3.03C38.026,4.113,36.006,7.809,35.155,12.078L35.155,12.078z M31.753,73.862
	c-2.213,2.324-0.539,4.953,3.588,2.597c4.857-2.772,7.135-11.91,8.385-22.084c0.318-2.611-0.311-2.616-1.027-0.215
	C40.429,61.777,36.915,68.441,31.753,73.862L31.753,73.862z"/>
</svg>
