<?xml version="1.0" encoding="utf-8"?>
<!-- Generator: Adobe Illustrator 17.0.0, SVG Export Plug-In . SVG Version: 6.00 Build 0)  -->
<!DOCTYPE svg PUBLIC "-//W3C//DTD SVG 1.1//EN" "http://www.w3.org/Graphics/SVG/1.1/DTD/svg11.dtd">
<svg version="1.1" id="Layer_1" xmlns="http://www.w3.org/2000/svg" xmlns:xlink="http://www.w3.org/1999/xlink" x="0px" y="0px"
	 width="92.168px" height="92.168px" viewBox="0 0 92.168 92.168" enable-background="new 0 0 92.168 92.168" xml:space="preserve">
<path fill-rule="evenodd" clip-rule="evenodd" fill="#434A54" d="M27.292,92.168h37.584c4.799,0,4.799-7.271,0-7.271h-1.158
	c-0.36,0-0.508-0.471-0.214-0.678c2.728-1.912,1.957-7.211-2.31-7.211h-2.584c-3.584,0-3.863-6.129,0.089-6.129h1.62
	c4.684,0,4.684-7.096,0-7.096h-2.308c-0.145,0-0.27-0.077-0.334-0.206c-3.454-6.923-4.128-16.346-3.996-26.496
	c0.002-0.204,0.169-0.368,0.372-0.368h1.229c4.453,0,4.453-6.746,0-6.746h-4.036c-0.388,0-0.514-0.531-0.169-0.705
	c3.612-1.826,6.088-5.572,6.088-9.895c0-5.059-3.392-9.328-8.026-10.654c-0.286-0.083-0.364-0.456-0.134-0.646
	C52.076,5.529,50.488,0,46.084,0s-5.993,5.529-2.922,8.066c0.23,0.19,0.152,0.564-0.134,0.646
	c-4.633,1.326-8.025,5.595-8.025,10.654c0,4.323,2.476,8.069,6.088,9.895c0.345,0.175,0.219,0.705-0.169,0.705h-4.036
	c-4.453,0-4.453,6.746,0,6.746h1.227c0.204,0,0.371,0.164,0.373,0.368c0.132,10.15-0.543,19.574-3.997,26.496
	c-0.065,0.13-0.189,0.206-0.334,0.206h-2.308c-4.684,0-4.684,7.096,0,7.096h1.725c3.496,0,3.367,6.129-0.016,6.129h-2.583
	c-4.267,0-5.037,5.299-2.31,7.211c0.295,0.207,0.146,0.678-0.214,0.678h-1.158C22.493,84.897,22.493,92.168,27.292,92.168
	L27.292,92.168z M45.631,12.606c-1.614,2.248-2.266,4.203-1.831,8.128c0.293,2.647-3.5,3.6-4.026,0.904
	c-1.111-5.695,0.853-8.93,5.51-9.637C46.37,11.836,46.163,11.865,45.631,12.606L45.631,12.606z M39.208,61.593
	c-1.19,2.945,2.457,3.472,3.198,0.832c2.093-7.46,1.201-15.296,1.27-23.084c0.016-1.906-1.18-2.361-1.183,0.088
	C42.482,47.222,41.999,54.68,39.208,61.593L39.208,61.593z M36.763,66.332c-0.71,0.459-1.117,1.045-1.133,1.795
	c-0.003,0.159-0.108,0.286-0.236,0.286c-0.478,0-0.956,0-1.434,0c-0.122,0-0.224-0.116-0.235-0.268
	c-0.139-1.938,1.005-2.562,2.949-2.367C37.182,65.828,37.384,65.929,36.763,66.332L36.763,66.332z M31.898,87.583
	c-0.886,0.459-1.394,1.046-1.415,1.795c-0.004,0.159-0.134,0.285-0.294,0.285c-0.597,0-1.193,0-1.789,0
	c-0.153,0-0.279-0.116-0.293-0.268c-0.173-1.938,1.253-2.562,3.68-2.367C32.421,87.079,32.673,87.18,31.898,87.583L31.898,87.583z
	 M37.138,80.097c-1.122,0.582-1.766,1.325-1.792,2.273c-0.005,0.202-0.171,0.363-0.373,0.363c-0.755,0-1.511,0-2.266,0
	c-0.194,0-0.354-0.147-0.372-0.34c-0.219-2.455,1.587-3.246,4.66-2.999C37.801,79.459,38.12,79.587,37.138,80.097L37.138,80.097z"/>
</svg>
