<?xml version="1.0" encoding="utf-8"?>
<!-- Generator: Adobe Illustrator 17.0.0, SVG Export Plug-In . SVG Version: 6.00 Build 0)  -->
<!DOCTYPE svg PUBLIC "-//W3C//DTD SVG 1.1//EN" "http://www.w3.org/Graphics/SVG/1.1/DTD/svg11.dtd">
<svg version="1.1" id="Layer_1" xmlns="http://www.w3.org/2000/svg" xmlns:xlink="http://www.w3.org/1999/xlink" x="0px" y="0px"
	 width="92.168px" height="92.168px" viewBox="0 0 92.168 92.168" enable-background="new 0 0 92.168 92.168" xml:space="preserve">
<path fill-rule="evenodd" clip-rule="evenodd" fill="#434A54" d="M1.128,92.168h89.913c0.382,0,0.692-0.311,0.692-0.692V0.692
	c0-0.381-0.31-0.692-0.692-0.692H1.128C0.745,0,0.435,0.311,0.435,0.692v90.783C0.435,91.857,0.745,92.168,1.128,92.168
	L1.128,92.168z M42.668,46.084H11.353c-0.587,0-1.067,0.481-1.067,1.067v31.274c0,0.588,0.48,1.067,1.067,1.067h31.315
	c0.587,0,1.067-0.48,1.067-1.067V47.151C43.735,46.564,43.255,46.084,42.668,46.084L42.668,46.084z M49.501,46.084h31.314
	c0.587,0,1.067-0.481,1.067-1.067V13.742c0-0.588-0.48-1.067-1.067-1.067H49.501c-0.587,0-1.067,0.48-1.067,1.067v31.275
	C48.433,45.603,48.913,46.084,49.501,46.084L49.501,46.084z M7.649,82.393h76.871c0.382,0,0.693-0.311,0.693-0.692V10.467
	c0-0.382-0.311-0.693-0.693-0.693H7.649c-0.382,0-0.693,0.311-0.693,0.693v71.233C6.956,82.082,7.267,82.393,7.649,82.393
	L7.649,82.393z"/>
</svg>
