<?xml version="1.0" encoding="utf-8"?>
<!-- Generator: Adobe Illustrator 17.0.0, SVG Export Plug-In . SVG Version: 6.00 Build 0)  -->
<!DOCTYPE svg PUBLIC "-//W3C//DTD SVG 1.1//EN" "http://www.w3.org/Graphics/SVG/1.1/DTD/svg11.dtd">
<svg version="1.1" id="Layer_1" xmlns="http://www.w3.org/2000/svg" xmlns:xlink="http://www.w3.org/1999/xlink" x="0px" y="0px"
	 width="92.168px" height="92.168px" viewBox="0 0 92.168 92.168" enable-background="new 0 0 92.168 92.168" xml:space="preserve">
<path fill-rule="evenodd" clip-rule="evenodd" fill="#434A54" d="M32.346,67.351h27.476c0.203,0,0.369-0.165,0.369-0.368V62.57
	c0-0.203-0.166-0.368-0.369-0.368H32.346c-0.203,0-0.369,0.166-0.369,0.368v4.412C31.977,67.185,32.143,67.351,32.346,67.351
	L32.346,67.351z M50.875,55.221c-1.534,0-2.097,1.923-1.031,2.816c0.131,0.111,0.187,0.274,0.151,0.442l-0.512,2.333
	c-0.061,0.28,0.153,0.547,0.44,0.547h1.903c0.287,0,0.501-0.267,0.44-0.547l-0.512-2.333c-0.036-0.168,0.019-0.331,0.151-0.442
	C52.972,57.143,52.41,55.221,50.875,55.221L50.875,55.221z M55.696,55.319l-1.211,5.515c-0.061,0.28,0.153,0.548,0.44,0.548h2.422
	c0.287,0,0.502-0.267,0.44-0.548l-1.211-5.515C56.475,54.853,55.798,54.853,55.696,55.319L55.696,55.319z M66.687,31.802
	c0,9.312,14.271,9.312,14.271,0C80.958,22.489,66.687,22.489,66.687,31.802L66.687,31.802z M61.615,43.78
	c0,6.267,0.021,12.608,0.18,18.864c0.049,1.907,0.674,4.706,4.04,4.706c1.589,0,2.852-0.854,3.68-2.139l9.545-14.819
	c0.206-0.32,0.7-0.252,0.81,0.113c0.139,0.458,0.279,0.915,0.418,1.373c0.041,0.135,0.02,0.27-0.059,0.386
	c-1.062,1.553-2.124,3.106-3.186,4.659c-0.088,0.128-0.104,0.28-0.045,0.424c1.318,3.241,2.637,6.482,3.956,9.723
	c0.07,0.173,0.23,0.281,0.417,0.281c3.449,0,6.896,0,10.344,0c0.151,0,0.281-0.068,0.368-0.191c0.087-0.123,0.107-0.268,0.056-0.41
	c-2.608-7.347-5.423-14.624-7.827-22.04c-1.969-6.073-9.865-4.228-11.426,0c-0.452,1.225-1.328,2.25-1.991,3.374
	c-0.748,1.27-0.839,1.761-0.839-0.229V43.78C70.057,38.281,61.615,38.267,61.615,43.78L61.615,43.78z M41.293,55.221
	c1.535,0,2.097,1.923,1.031,2.816c-0.132,0.111-0.188,0.274-0.151,0.442l0.511,2.333c0.062,0.28-0.154,0.547-0.44,0.547h-1.903
	c-0.287,0-0.502-0.267-0.44-0.547l0.512-2.333c0.037-0.168-0.019-0.331-0.15-0.442C39.196,57.143,39.758,55.221,41.293,55.221
	L41.293,55.221z M36.472,55.319l1.211,5.515c0.062,0.28-0.153,0.548-0.44,0.548H34.82c-0.287,0-0.502-0.267-0.44-0.548l1.211-5.515
	C35.694,54.853,36.369,54.853,36.472,55.319L36.472,55.319z M25.481,31.802c0,9.312-14.271,9.312-14.271,0
	C11.21,22.489,25.481,22.489,25.481,31.802L25.481,31.802z M30.553,43.78c0,6.267-0.022,12.608-0.181,18.864
	c-0.048,1.907-0.674,4.706-4.04,4.706c-1.589,0-2.853-0.854-3.68-2.139l-9.545-14.819c-0.206-0.32-0.7-0.252-0.81,0.113
	c-0.139,0.458-0.279,0.915-0.419,1.373c-0.041,0.135-0.02,0.27,0.059,0.386c1.062,1.553,2.125,3.106,3.187,4.659
	c0.087,0.128,0.104,0.28,0.045,0.424c-1.318,3.241-2.637,6.482-3.956,9.723c-0.07,0.173-0.23,0.281-0.417,0.281
	c-3.448,0-6.897,0-10.344,0c-0.151,0-0.281-0.068-0.369-0.191c-0.087-0.123-0.107-0.268-0.056-0.41
	c2.608-7.347,5.423-14.624,7.827-22.04c1.97-6.073,9.866-4.228,11.426,0c0.452,1.225,1.329,2.25,1.991,3.374
	c0.748,1.27,0.838,1.761,0.838-0.229V43.78C22.111,38.281,30.553,38.267,30.553,43.78L30.553,43.78z"/>
</svg>
