<?xml version="1.0" encoding="utf-8"?>
<!-- Generator: Adobe Illustrator 17.0.0, SVG Export Plug-In . SVG Version: 6.00 Build 0)  -->
<!DOCTYPE svg PUBLIC "-//W3C//DTD SVG 1.1//EN" "http://www.w3.org/Graphics/SVG/1.1/DTD/svg11.dtd">
<svg version="1.1" id="Layer_1" xmlns="http://www.w3.org/2000/svg" xmlns:xlink="http://www.w3.org/1999/xlink" x="0px" y="0px"
	 width="92.168px" height="92.168px" viewBox="0 0 92.168 92.168" enable-background="new 0 0 92.168 92.168" xml:space="preserve">
<path fill-rule="evenodd" clip-rule="evenodd" fill="#434A54" d="M5.868,92.168h27.409c4.366,0,5.146-4.609,2.341-6.257
	c-0.73-0.428-1.144-0.478-1.766-1.107c-4.497-4.559-7.167-9.081-7.971-13.583c-0.075-0.416,0.226-0.81,0.649-0.846
	c3.906-0.339,3.79-6.43-0.344-6.43h-0.801c-0.662,0-0.973-0.834-0.474-1.267c5.151-4.478,2.483-14.173-5.339-14.173
	c-0.358,0-0.704,0.021-1.039,0.06c-0.624,0.073-1.038-0.644-0.664-1.148c3.804-5.121,4.08-12.909,9.108-16.832
	c3.844-2.999,9.245-2.076,13.012-5.077c1.732-1.381,2.305-2.066,4.736-1.828c7.435,0.727,10.328,11.968,4.298,18.324
	c-1.805,1.902-3.871,2.41-5.992,2.601c-6.714,0.6-10.517,4.78-12.607,10.64c-1.307,3.664,2.565,8.087,5.86,4.846
	c2.844-2.798,6.692-3.76,12.34-2.536c2.964,0.643,4.669-0.729,6.142-2.366c2.093-2.327,5.346-3.268,8.677-4.338
	c8.161-2.624,11.649-6.986,13.765-11.535c3.037-6.527,7.78-12.019,12.873-17.224c0.137-0.141,0.206-0.31,0.206-0.506
	c0-6.955,0-13.907,0-20.861c0-0.208-0.079-0.387-0.23-0.528c-0.152-0.142-0.336-0.207-0.543-0.192
	c-13.61,0.961-27.22,1.936-40.83,2.884C43.423,3.254,40.197,6.415,36.7,9.783c-5.171,4.98-11.183,7.375-15.488,9.271
	c-5.044,2.221-8.076,6.763-9.326,12.637c-0.839,3.948-2.043,7.81-3.042,11.72c-1.501,5.871-0.155,9.309,2.636,9.009
	c0.541-0.057,0.952,0.486,0.746,0.99c-1.251,3.078-0.713,6.902,2.009,9.268c0.501,0.434,0.188,1.267-0.474,1.267h-0.802
	c-4.135,0-4.251,6.091-0.345,6.43c0.422,0.036,0.724,0.429,0.649,0.846c-0.785,4.392-3.343,8.802-7.642,13.247
	C5,85.11,4.694,85.368,3.913,85.713C0.66,87.149,1.311,92.168,5.868,92.168L5.868,92.168z"/>
</svg>
