<?xml version="1.0" encoding="utf-8"?>
<!-- Generator: Adobe Illustrator 17.0.0, SVG Export Plug-In . SVG Version: 6.00 Build 0)  -->
<!DOCTYPE svg PUBLIC "-//W3C//DTD SVG 1.1//EN" "http://www.w3.org/Graphics/SVG/1.1/DTD/svg11.dtd">
<svg version="1.1" id="Layer_1" xmlns="http://www.w3.org/2000/svg" xmlns:xlink="http://www.w3.org/1999/xlink" x="0px" y="0px"
	 width="92.168px" height="92.168px" viewBox="0 0 92.168 92.168" enable-background="new 0 0 92.168 92.168" xml:space="preserve">
<path fill-rule="evenodd" clip-rule="evenodd" fill="#434A54" d="M1.141,92.168h89.885c0.338,0,0.615-0.277,0.615-0.615V0.613
	C91.641,0.276,91.365,0,91.026,0H1.141C0.803,0,0.527,0.276,0.527,0.613v90.941C0.527,91.89,0.803,92.168,1.141,92.168L1.141,92.168
	z M46.471,16.988h9.17c0.213,0,0.387,0.175,0.387,0.388v8.312c0,0.213-0.175,0.387-0.387,0.387h-9.17
	c-0.213,0-0.387-0.174-0.387-0.387v-8.312C46.084,17.163,46.257,16.988,46.471,16.988L46.471,16.988z M46.091,46.84
	c0.027,2.77-0.007,5.548-0.007,8.318c0,0.213-0.175,0.388-0.388,0.388h-9.261c-0.213,0-0.388-0.175-0.388-0.388v-8.314
	c0-0.213,0.174-0.387,0.388-0.387h9.268C45.916,46.457,46.089,46.627,46.091,46.84L46.091,46.84z M46.084,45.696v-8.74
	c0-0.221,0.173-0.402,0.387-0.402h9.17c0.213,0,0.387,0.181,0.387,0.402v8.74c0,0.214-0.175,0.389-0.388,0.387
	c-2.872-0.008-6.436,0.001-9.169,0.001C46.257,46.083,46.084,45.909,46.084,45.696L46.084,45.696z M16.731,46.457h9.113
	c0.213,0,0.387,0.174,0.387,0.387v8.314c0,0.213-0.174,0.388-0.388,0.388h-9.116c-0.213,0-0.387-0.175-0.387-0.388
	c0-2.767,0.038-5.542,0.004-8.308c-0.001-0.108,0.036-0.202,0.112-0.278C16.531,46.496,16.623,46.457,16.731,46.457L16.731,46.457z
	 M15.861,46.083H6.879c-0.195,0-0.355,0.165-0.355,0.366v9.364c0,0.201,0.16,0.365,0.355,0.365h8.982
	c0.214,0,0.388,0.175,0.388,0.388v8.311c0,0.213-0.175,0.388-0.388,0.388H6.879c-0.195,0-0.355,0.169-0.355,0.379v9.719
	c0,0.209,0.16,0.379,0.355,0.379h8.982c0.214,0,0.388,0.181,0.388,0.403v9.118c0,0.211,0.165,0.383,0.367,0.383h9.413
	c0.202,0,0.368-0.172,0.368-0.383v-9.118c0-0.222,0.174-0.403,0.388-0.403h8.763c0.213,0,0.388,0.181,0.388,0.403v9.118
	c0,0.211,0.165,0.383,0.367,0.383h9.413c0.202,0,0.368-0.172,0.368-0.383v-9.118c0-0.222,0.173-0.403,0.387-0.403h9.17
	c0.213,0,0.387,0.181,0.387,0.403l0,9.118c0,0.211,0.165,0.383,0.367,0.383h9.414c0.202,0,0.368-0.172,0.368-0.383v-9.037
	c0-0.222,0.173-0.403,0.387-0.403h8.711c0.214,0,0.387,0.181,0.387,0.403v9.037c0,0.211,0.166,0.383,0.368,0.383h9.414
	c0.202,0,0.367-0.172,0.367-0.383v-9.795c0-0.211-0.165-0.383-0.367-0.383h-9.229c-0.213,0-0.387-0.18-0.387-0.401v-8.578
	c0-0.213,0.173-0.388,0.387-0.388h9.229c0.202,0,0.367-0.166,0.367-0.368v-9.436c0-0.203-0.165-0.369-0.367-0.369h-9.229
	c-0.213,0-0.387-0.175-0.387-0.388v-8.314c0-0.213,0.173-0.387,0.387-0.387h9.229c0.202,0,0.367-0.173,0.367-0.383v-9.796
	c0-0.21-0.165-0.382-0.367-0.382h-9.229c-0.213,0-0.387-0.181-0.387-0.402v-8.577c0-0.213,0.173-0.388,0.387-0.388h9.229
	c0.202,0,0.367-0.166,0.367-0.368v-9.437c0-0.203-0.165-0.368-0.367-0.368h-9.229c-0.213,0-0.387-0.175-0.387-0.388V7.338
	c0-0.2-0.16-0.365-0.356-0.365h-9.106c-0.196,0-0.355,0.165-0.355,0.365v8.631c0,0.213-0.174,0.388-0.388,0.388H56.53
	c-0.213,0-0.388-0.175-0.388-0.388v-8.71c0-0.201-0.164-0.366-0.364-0.366h-9.33c-0.2,0-0.364,0.166-0.364,0.366v8.71
	c0,0.213-0.175,0.388-0.388,0.388h-9.261c-0.213,0-0.388-0.175-0.388-0.388v-8.71c0-0.201-0.16-0.366-0.355-0.366h-9.106
	c-0.195,0-0.355,0.166-0.355,0.366v8.71c0,0.213-0.174,0.388-0.388,0.388h-9.116c-0.213,0-0.387-0.175-0.387-0.388v-8.71
	c0-0.201-0.16-0.366-0.355-0.366H6.879c-0.195,0-0.355,0.166-0.355,0.366v9.364c0,0.202,0.16,0.365,0.355,0.365h8.982
	c0.214,0,0.388,0.175,0.388,0.388v8.312c0,0.213-0.175,0.387-0.388,0.387H6.879c-0.195,0-0.355,0.17-0.355,0.38v9.718
	c0,0.209,0.16,0.38,0.355,0.38h8.982c0.214,0,0.388,0.181,0.388,0.402v8.74C16.249,45.909,16.074,46.083,15.861,46.083
	L15.861,46.083z M46.471,56.178h9.17c0.213,0,0.387,0.175,0.387,0.388v8.311c0,0.213-0.175,0.388-0.387,0.388h-9.17
	c-0.213,0-0.387-0.175-0.387-0.388v-8.311C46.084,56.353,46.257,56.178,46.471,56.178L46.471,56.178z M46.084,74.684
	c0,0.221-0.175,0.401-0.388,0.401h-9.261c-0.213,0-0.388-0.18-0.388-0.401l-0.001-8.578c0-0.213,0.175-0.388,0.388-0.388h9.281
	c0.209,0,0.383,0.167,0.39,0.376C46.195,68.938,46.084,71.842,46.084,74.684L46.084,74.684z M56.529,65.718h9.094
	c0.214,0,0.388,0.175,0.388,0.388v8.578c0,0.22-0.174,0.401-0.388,0.401H56.53c-0.213,0-0.388-0.18-0.388-0.401l-0.001-8.578
	C56.141,65.893,56.316,65.718,56.529,65.718L56.529,65.718z M66.176,64.958v-8.314c0-0.213,0.173-0.388,0.387-0.388h8.711
	c0.214,0,0.387,0.175,0.387,0.388v8.314c0,0.212-0.174,0.388-0.387,0.388h-8.711C66.35,65.346,66.176,65.171,66.176,64.958
	L66.176,64.958z M75.274,46.162h-8.711c-0.213,0-0.387-0.174-0.387-0.387v-8.737c0-0.222,0.173-0.403,0.387-0.403h8.711
	c0.214,0,0.387,0.181,0.387,0.403v8.737C75.662,45.988,75.488,46.162,75.274,46.162L75.274,46.162z M66.011,46.844v8.314
	c0,0.213-0.174,0.388-0.388,0.388H56.53c-0.213,0-0.388-0.175-0.388-0.388v-8.314c0-0.213,0.174-0.387,0.388-0.387h9.094
	C65.837,46.457,66.011,46.631,66.011,46.844L66.011,46.844z M35.548,46.083h-8.763c-0.213,0-0.388-0.174-0.388-0.387v-8.74
	c0-0.221,0.174-0.402,0.388-0.402h8.763c0.213,0,0.388,0.181,0.388,0.402v8.74C35.936,45.909,35.761,46.083,35.548,46.083
	L35.548,46.083z M16.728,65.718h9.116c0.213,0,0.387,0.175,0.387,0.388v8.578c0,0.22-0.174,0.401-0.388,0.401h-9.116
	c-0.213,0-0.387-0.18-0.387-0.401v-8.578C16.341,65.893,16.514,65.718,16.728,65.718L16.728,65.718z M26.397,64.877v-8.311
	c0-0.213,0.174-0.388,0.388-0.388h8.763c0.213,0,0.388,0.175,0.388,0.388v8.311c0,0.213-0.175,0.388-0.388,0.388h-8.763
	C26.571,65.265,26.397,65.09,26.397,64.877L26.397,64.877z M46.084,35.495c0,0.221-0.175,0.402-0.388,0.402h-9.261
	c-0.213,0-0.388-0.181-0.388-0.402l-0.001-8.577c0-0.213,0.175-0.388,0.388-0.388h9.281c0.209,0,0.383,0.166,0.39,0.376
	C46.195,29.749,46.084,32.653,46.084,35.495L46.084,35.495z M56.529,26.529h9.094c0.214,0,0.388,0.175,0.388,0.388v8.577
	c0,0.221-0.174,0.402-0.388,0.402H56.53c-0.213,0-0.388-0.181-0.388-0.402l-0.001-8.577C56.141,26.704,56.316,26.529,56.529,26.529
	L56.529,26.529z M66.176,25.768v-8.314c0-0.213,0.173-0.387,0.387-0.387h8.711c0.214,0,0.387,0.174,0.387,0.387v8.315
	c0,0.212-0.174,0.387-0.387,0.387h-8.711C66.35,26.156,66.176,25.982,66.176,25.768L66.176,25.768z M16.728,26.529h9.116
	c0.213,0,0.387,0.175,0.387,0.388v8.577c0,0.221-0.174,0.402-0.388,0.402h-9.116c-0.213,0-0.387-0.181-0.387-0.402v-8.577
	C16.341,26.704,16.514,26.529,16.728,26.529L16.728,26.529z M26.397,25.688v-8.312c0-0.213,0.174-0.388,0.388-0.388h8.763
	c0.213,0,0.388,0.175,0.388,0.388v8.312c0,0.213-0.175,0.387-0.388,0.387h-8.763C26.571,26.075,26.397,25.901,26.397,25.688
	L26.397,25.688z M5.281,86.943h81.605c0.236,0,0.429-0.189,0.429-0.421V5.643c0-0.231-0.193-0.42-0.429-0.42H5.281
	c-0.235,0-0.428,0.189-0.428,0.42v80.879C4.853,86.754,5.046,86.943,5.281,86.943L5.281,86.943z"/>
</svg>
