<?xml version="1.0" encoding="utf-8"?>
<!-- Generator: Adobe Illustrator 17.0.0, SVG Export Plug-In . SVG Version: 6.00 Build 0)  -->
<!DOCTYPE svg PUBLIC "-//W3C//DTD SVG 1.1//EN" "http://www.w3.org/Graphics/SVG/1.1/DTD/svg11.dtd">
<svg version="1.1" id="Layer_1" xmlns="http://www.w3.org/2000/svg" xmlns:xlink="http://www.w3.org/1999/xlink" x="0px" y="0px"
	 width="92.168px" height="92.168px" viewBox="0 0 92.168 92.168" enable-background="new 0 0 92.168 92.168" xml:space="preserve">
<path fill-rule="evenodd" clip-rule="evenodd" fill="#434A54" d="M0,77.338h92.168V29.937H1.088C0.489,29.937,0,30.427,0,31.026
	V77.338L0,77.338z M29.884,53.16v1.54c0,0.258,0.21,0.467,0.466,0.467h6.044c1.633,0,1.633-2.473,0-2.473h-6.044
	C30.094,52.694,29.884,52.903,29.884,53.16L29.884,53.16z M26.59,50.144h-1.541c-0.257,0-0.466-0.209-0.466-0.466v-6.044
	c0-1.631,2.473-1.631,2.473,0v6.044C27.056,49.935,26.847,50.144,26.59,50.144L26.59,50.144z M23.528,53.93
	c0,2.99,4.583,2.99,4.583,0C28.111,50.94,23.528,50.94,23.528,53.93L23.528,53.93z M69.678,53.16v1.541
	c0,0.257,0.209,0.466,0.466,0.466h6.044c1.632,0,1.632-2.473,0-2.473h-6.044C69.888,52.694,69.678,52.904,69.678,53.16L69.678,53.16
	z M65.578,50.144h1.541c0.256,0,0.466-0.209,0.466-0.466v-6.044c0-1.631-2.473-1.631-2.473,0v6.044
	C65.112,49.935,65.321,50.144,65.578,50.144L65.578,50.144z M68.639,53.93c0,2.99-4.582,2.99-4.582,0
	C64.057,50.94,68.639,50.94,68.639,53.93L68.639,53.93z M52.788,19.5h8.257c0.257,0,0.466,0.21,0.466,0.466v6.445
	c0,0.345,0.281,0.625,0.625,0.625h4.952c0.344,0,0.625-0.281,0.625-0.625v-6.445c0-0.257,0.209-0.466,0.466-0.466h8.257
	c0.139,0,0.253-0.114,0.253-0.252v-4.165c0-0.14-0.113-0.253-0.253-0.253H52.788c-0.139,0-0.253,0.113-0.253,0.253v4.165
	C52.535,19.386,52.649,19.5,52.788,19.5L52.788,19.5z M14.127,27.037h22.377c0.268,0,0.488-0.219,0.488-0.487v-5.029
	c0-0.269-0.22-0.488-0.488-0.488H14.127c-0.268,0-0.487,0.219-0.487,0.488v5.029C13.64,26.818,13.859,27.037,14.127,27.037
	L14.127,27.037z M12.522,53.93c0,17.356,26.596,17.356,26.596,0S12.522,36.574,12.522,53.93L12.522,53.93z M79.646,53.93
	c0,17.356-26.596,17.356-26.596,0S79.646,36.574,79.646,53.93L79.646,53.93z"/>
</svg>
