<?xml version="1.0" encoding="utf-8"?>
<!-- Generator: Adobe Illustrator 17.0.0, SVG Export Plug-In . SVG Version: 6.00 Build 0)  -->
<!DOCTYPE svg PUBLIC "-//W3C//DTD SVG 1.1//EN" "http://www.w3.org/Graphics/SVG/1.1/DTD/svg11.dtd">
<svg version="1.1" id="Layer_1" xmlns="http://www.w3.org/2000/svg" xmlns:xlink="http://www.w3.org/1999/xlink" x="0px" y="0px"
	 width="92.168px" height="92.168px" viewBox="0 0 92.168 92.168" enable-background="new 0 0 92.168 92.168" xml:space="preserve">
<path fill-rule="evenodd" clip-rule="evenodd" fill="#434A54" d="M53.895,89.718h34.15c5.497,0,5.497-8.389,0-8.389H87.11
	c-0.385,0-0.571-0.481-0.286-0.739c2.196-1.994,1.377-6.657-2.459-6.657h-1.777c-0.4,0-0.576-0.514-0.261-0.76
	c2.216-1.729,1.831-5.861-1.156-6.754c-0.101-0.031-0.178-0.088-0.235-0.177c-3.671-5.711-6.059-12.126-5.653-20.08
	c0.01-0.188,0.136-0.343,0.319-0.39c4.358-1.12,3.944-8.138-1.242-8.138h-4.328c-0.461,0-0.586-0.648-0.158-0.819
	c12.873-5.145,11.063-24.831-3.958-24.831c-14.917,0-16.536,20.37-4.862,24.801c0.434,0.164,0.316,0.818-0.147,0.822l-3.486,0.027
	c-5.186,0.041-5.601,7.016-1.243,8.138c0.183,0.047,0.31,0.201,0.319,0.39c0.375,7.352-1.637,13.39-4.843,18.772
	c-0.049,0.083-0.067,0.17-0.053,0.264c0.215,1.543-0.061,3.01-0.725,4.362c-0.101,0.206-0.01,0.455,0.199,0.549
	c1.408,0.627,2.59,1.686,3.387,3.151c1.635,3.006,1.184,6.869-1.054,9.308c-0.129,0.141-0.144,0.348-0.034,0.506
	c1.226,1.761,1.25,4.208,0.172,6.031C53.387,89.376,53.583,89.718,53.895,89.718L53.895,89.718z M6.717,89.585h42.21
	c3.99,0,4.443-5.257,1.357-6.447c-0.333-0.129-0.345-0.601-0.021-0.748c4.895-2.21,4.078-10.873-2.451-10.93
	c-0.354-0.003-0.535-0.435-0.286-0.69c1.854-1.892,2.644-4.085,1.746-6.556c-3.807-10.471-0.239-20.142,0.858-30.602
	c1.989-18.964-11.234-25.34-22.109-25.171c-0.129,0.002-0.241-0.051-0.322-0.151c-2.221-2.749-5.192-4.377-8.295-5.804
	c-0.301-0.138-0.637,0.131-0.566,0.455c0.921,4.22,2.076,8.812-2.743,13.131c-5.97,5.351-11.571,10.051-16.005,15.48
	c-0.12,0.148-0.123,0.352-0.007,0.503c2.06,2.686,4.119,5.374,6.178,8.059c0.12,0.156,0.329,0.204,0.505,0.117
	c2.998-1.515,5.999-3.03,8.998-4.544c0.182-0.092,0.402-0.035,0.517,0.132c2.245,3.266,7.746-0.339,13.648-4.795
	c1.714-1.295,2.189-1.313,0.552,0.588C24.581,38.468,15.646,46.813,6.849,55.73c-5.961,6.043-1.922,12.237,2.225,14.986
	c0.331,0.22,0.173,0.744-0.224,0.744H7.516c-6.666,0-7.447,8.917-2.342,11.006c0.326,0.133,0.335,0.598,0.014,0.744
	C2.293,84.527,2.802,89.585,6.717,89.585L6.717,89.585z"/>
</svg>
