<?xml version="1.0" encoding="utf-8"?>
<!-- Generator: Adobe Illustrator 17.0.0, SVG Export Plug-In . SVG Version: 6.00 Build 0)  -->
<!DOCTYPE svg PUBLIC "-//W3C//DTD SVG 1.1//EN" "http://www.w3.org/Graphics/SVG/1.1/DTD/svg11.dtd">
<svg version="1.1" id="Layer_1" xmlns="http://www.w3.org/2000/svg" xmlns:xlink="http://www.w3.org/1999/xlink" x="0px" y="0px"
	 width="92.168px" height="92.168px" viewBox="0 0 92.168 92.168" enable-background="new 0 0 92.168 92.168" xml:space="preserve">
<path fill-rule="evenodd" clip-rule="evenodd" fill="#434A54" d="M30.058,92.168H62.11c3.304,0,3.728-4.305,1.272-5.409
	c-0.254-0.115-0.244-0.483,0.016-0.585c4.242-1.646,3.692-8.929-1.652-9.11c-0.295-0.01-0.416-0.39-0.181-0.569
	c1.884-1.431,1.277-5.088-1.819-5.088h-0.583c-0.159,0-0.293-0.116-0.314-0.274l-4.481-32.83c-0.024-0.177,0.104-0.34,0.282-0.358
	c3.545-0.362,3.417-5.735-0.385-5.735h-2.462c-0.22,0-0.374-0.221-0.298-0.427l4.941-13.366c0.62-1.679-0.494-2.926-2.58-2.928
	c-1.059-0.001-2.118,0-3.177,0c-0.124,0-0.229-0.067-0.284-0.177c-0.6-1.214-1.196-2.432-1.798-3.644
	c-0.399-0.802-0.178-1.437,0.943-0.695c1.565,1.038,3.246,1.892,4.869,2.837c0.258,0.149,0.564-0.114,0.454-0.391
	c-1.435-3.62-1.121-7.241,0.024-10.862c0.095-0.299-0.265-0.54-0.505-0.339c-1.34,1.119-2.795,2.116-4.021,3.361
	c-0.741,0.751-1.771,0.122-1.089-0.866c0.931-1.345,1.655-2.824,2.483-4.235c0.148-0.253-0.105-0.558-0.38-0.459
	c-3.413,1.225-7.187,1.225-10.6,0c-0.276-0.099-0.529,0.206-0.381,0.459c0.827,1.411,1.551,2.89,2.482,4.235
	c0.684,0.987-0.348,1.617-1.088,0.866c-1.226-1.244-2.68-2.241-4.021-3.361c-0.24-0.201-0.601,0.04-0.506,0.339
	c1.145,3.621,1.459,7.241,0.024,10.862c-0.109,0.277,0.197,0.54,0.455,0.391c1.623-0.945,3.304-1.798,4.869-2.837
	c1.12-0.743,1.341-0.108,0.943,0.695c-0.603,1.213-1.199,2.43-1.798,3.644c-0.054,0.11-0.161,0.177-0.284,0.177
	c-1.059,0-2.118-0.001-3.177,0c-2.086,0.001-3.2,1.249-2.58,2.928l4.94,13.366c0.076,0.207-0.078,0.427-0.297,0.427h-2.462
	c-3.802,0-3.93,5.373-0.385,5.735c0.178,0.019,0.306,0.181,0.282,0.358l-4.481,32.83c-0.021,0.158-0.155,0.274-0.314,0.274h-0.582
	c-3.097,0-3.703,3.656-1.819,5.088c0.235,0.179,0.114,0.559-0.181,0.569c-5.344,0.182-5.895,7.465-1.652,9.111
	c0.26,0.101,0.27,0.469,0.015,0.584C26.33,87.863,26.754,92.168,30.058,92.168L30.058,92.168z M35.868,79.317
	c-3.498,0.071-6.221,0.887-6.314,3.286c-0.08,2.036,3.874,1.632,4.011,0c0.096-1.151,1.007-2.01,2.403-2.697
	C36.897,79.45,37.592,79.282,35.868,79.317L35.868,79.317z M33.362,88.255c-0.706,0.366-1.11,0.833-1.126,1.428
	c-0.003,0.127-0.108,0.228-0.234,0.228c-0.475,0-0.95,0-1.424,0c-0.122,0-0.223-0.092-0.234-0.214
	c-0.137-1.543,0.998-2.04,2.929-1.885C33.778,87.854,33.979,87.934,33.362,88.255L33.362,88.255z M39.812,40.358
	c0.283-1.967,1.908-1.57,1.703,0.225c-1.041,9.092-2.439,18.14-3.659,27.21c-0.254,1.893,0.695,4.18-0.811,5.649
	c-0.906,0.884-1.182,1.63-1.163,2.513c0.003,0.177-0.15,0.266-0.317,0.323c-2.331,0.791-3.653-1.718-1.595-2.645
	c0.669-0.302,1.391-0.495,1.686-2.623C37.076,60.797,38.341,50.563,39.812,40.358L39.812,40.358z M41.148,34.542
	c-0.671,0.487-1.055,1.107-1.07,1.899c-0.003,0.169-0.102,0.303-0.222,0.303c-0.451,0-0.902,0-1.354,0
	c-0.116,0-0.211-0.123-0.222-0.284c-0.131-2.051,0.948-2.712,2.783-2.506C41.543,34.008,41.734,34.116,41.148,34.542L41.148,34.542z
	 M42.566,18.899c-0.663,0.01-1.327,0.008-1.989,0.033c-1.972,0.076-1.999,0.765-1.681,1.682c0.971,2.805,1.752,5.672,2.643,8.503
	c0.718,2.28,1.775,0.773,1.293-0.586c-0.593-1.676-0.915-3.435-1.39-5.147c-0.39-1.408-0.002-2.721,1.342-3.932
	C43.367,18.927,43.343,18.886,42.566,18.899L42.566,18.899z"/>
</svg>
