<?xml version="1.0" encoding="utf-8"?>
<!-- Generator: Adobe Illustrator 17.0.0, SVG Export Plug-In . SVG Version: 6.00 Build 0)  -->
<!DOCTYPE svg PUBLIC "-//W3C//DTD SVG 1.1//EN" "http://www.w3.org/Graphics/SVG/1.1/DTD/svg11.dtd">
<svg version="1.1" id="Layer_1" xmlns="http://www.w3.org/2000/svg" xmlns:xlink="http://www.w3.org/1999/xlink" x="0px" y="0px"
	 width="92.168px" height="92.168px" viewBox="0 0 92.168 92.168" enable-background="new 0 0 92.168 92.168" xml:space="preserve">
<path fill-rule="evenodd" clip-rule="evenodd" fill="#fff" d="M24.942,92.168H69.59c4.221,0,4.7-5.559,1.436-6.819
	c-0.352-0.136-0.366-0.635-0.022-0.79c5.178-2.339,4.314-11.501-2.592-11.562c-0.375-0.004-0.566-0.46-0.304-0.729
	c1.961-2.002,2.797-4.32,1.847-6.935c-4.026-11.077-0.253-21.306,0.907-32.37C72.965,12.904,58.98,6.16,47.476,6.337
	c-0.137,0.002-0.255-0.052-0.34-0.159c-2.35-2.908-5.491-4.63-8.773-6.138c-0.319-0.148-0.673,0.138-0.599,0.481
	c0.975,4.463,2.195,9.32-2.901,13.888c-6.315,5.66-12.24,10.632-16.928,16.375c-0.127,0.156-0.13,0.373-0.008,0.532
	c2.178,2.842,4.358,5.684,6.535,8.525c0.127,0.166,0.348,0.216,0.534,0.121c3.172-1.601,6.345-3.204,9.517-4.805
	c0.193-0.097,0.425-0.039,0.547,0.14c2.375,3.454,8.193-0.358,14.437-5.072c1.813-1.37,2.315-1.389,0.584,0.622
	c-6.242,7.251-15.694,16.078-24.999,25.511c-6.305,6.391-2.033,12.944,2.354,15.851c0.35,0.233,0.183,0.787-0.237,0.787h-1.41
	c-7.051,0-7.878,9.433-2.478,11.641c0.345,0.141,0.354,0.634,0.015,0.787C20.262,86.819,20.801,92.168,24.942,92.168L24.942,92.168z
	 M53.059,37.648c-0.948,4.245-4.117,7.791-9.02,11.348c-5.52,4.005-9.079,9.006-7.795,14.369c1.97,8.225-8.308,8.502-7.631,0
	c0.432-5.437,4.721-9.819,11.039-14.269c4.982-3.508,9.315-7.529,12.649-11.807C53.029,36.358,53.375,36.23,53.059,37.648
	L53.059,37.648z M26.594,27.317c-3.527,4.451,1.696,8.662,4.639,2.622c2.451-5.032,5.787-9.762,10.117-14.112
	c1.125-1.13,0.967-1.443-0.501-0.685C35.144,18.088,30.567,22.302,26.594,27.317L26.594,27.317z M31.82,75.322
	c-8.525,2.136-8.505,8.39-3.517,7.284c0.208-0.046,0.348-0.233,0.336-0.445c-0.151-2.483,1.081-4.484,3.519-6.063
	C33.446,75.264,33.193,74.978,31.82,75.322L31.82,75.322z M29.518,87.178c-0.726,0.936-0.989,1.809-0.899,2.633
	c0.029,0.261-0.102,0.501-0.273,0.501c-0.676,0-1.359-0.156-2.027,0c-1.132,0.266-1.772-1.516,0.104-3.122
	c0.901-0.771,1.898-1.013,2.959-0.767C29.617,86.479,29.701,86.943,29.518,87.178L29.518,87.178z"/>
</svg>
