<?xml version="1.0" encoding="utf-8"?>
<!-- Generator: Adobe Illustrator 17.0.0, SVG Export Plug-In . SVG Version: 6.00 Build 0)  -->
<!DOCTYPE svg PUBLIC "-//W3C//DTD SVG 1.1//EN" "http://www.w3.org/Graphics/SVG/1.1/DTD/svg11.dtd">
<svg version="1.1" id="Layer_1" xmlns="http://www.w3.org/2000/svg" xmlns:xlink="http://www.w3.org/1999/xlink" x="0px" y="0px"
	 width="92.168px" height="92.168px" viewBox="0 0 92.168 92.168" enable-background="new 0 0 92.168 92.168" xml:space="preserve">
<path fill-rule="evenodd" clip-rule="evenodd" fill="#fff" d="M19.814,92.168h52.54c6.518,0,6.518-9.948,0-9.948h-1.109
	c-0.457,0-0.676-0.569-0.339-0.877c2.604-2.364,1.633-7.891-2.915-7.891h-2.107c-0.474,0-0.683-0.61-0.31-0.901
	c2.628-2.05,2.171-6.95-1.371-8.008c-0.12-0.035-0.212-0.105-0.28-0.211c-4.352-6.771-7.184-14.379-6.702-23.808
	c0.012-0.224,0.161-0.406,0.378-0.462c5.168-1.33,4.677-9.65-1.472-9.65h-5.133c-0.547,0-0.694-0.768-0.186-0.971
	C66.072,23.342,63.926,0,46.115,0c-17.687,0-19.607,24.154-5.765,29.406c0.514,0.195,0.375,0.97-0.175,0.975l-4.135,0.032
	c-6.149,0-6.64,8.32-1.473,9.65c0.217,0.056,0.367,0.237,0.378,0.462c0.483,9.437-2.354,17.05-6.711,23.824
	c-0.067,0.104-0.157,0.173-0.275,0.209c-3.502,1.084-3.946,5.953-1.329,7.994c0.374,0.291,0.165,0.901-0.31,0.901h-2.143
	c-4.548,0-5.518,5.528-2.915,7.891c0.338,0.307,0.117,0.877-0.338,0.877h-1.109C13.297,82.22,13.297,92.168,19.814,92.168
	L19.814,92.168z M31.568,70.947c2.006,0,4.012,0,6.018,0c0.313,0,0.552-0.285,0.496-0.593c-0.524-2.906,0.14-5.83,2.018-9.07
	c3.012-5.196,3.17-10.586,2.58-15.975c-0.306-2.792-0.741-2.166-1.001-0.006c-0.718,5.936-2.209,11.57-6.505,15.507
	c-3.431,3.147-5.2,5.89-4.09,9.772C31.146,70.801,31.34,70.947,31.568,70.947L31.568,70.947z M34.706,75.101
	c-10.274-0.983-12.705,5.95-6.751,6.682c0.248,0.031,0.477-0.121,0.547-0.361c0.806-2.808,2.955-4.538,6.273-5.329
	C36.528,75.675,36.361,75.255,34.706,75.101L34.706,75.101z M27.811,85.666c-1.321,1.098-1.799,2.123-1.634,3.092
	c0.026,0.151-0.013,0.292-0.112,0.41c-0.099,0.117-0.231,0.179-0.385,0.179c-1.229,0-2.47-0.184-3.686,0
	c-2.058,0.311-3.222-1.781,0.19-3.666c1.638-0.905,3.451-1.19,5.379-0.901C27.989,84.844,28.142,85.39,27.811,85.666L27.811,85.666z
	 M41.16,35.287c-0.461,0.698-0.785,1.44-0.754,2.293c0.01,0.283-0.215,0.52-0.498,0.522c-0.603,0.007-1.218,0.13-1.812,0.018
	c-2.052-0.384-2.436-2.527,0.711-3.308c0.607-0.151,1.236-0.2,1.852-0.3C41.089,34.443,41.4,34.924,41.16,35.287L41.16,35.287z
	 M45.799,6.776c-2.503,3.038-4.184,6.628-3.126,11.933c0.704,3.531-3.965,3.897-4.79,0.274C36.15,11.386,38.837,7,45.33,5.958
	C46.797,5.723,46.583,5.824,45.799,6.776L45.799,6.776z"/>
</svg>
