<?xml version="1.0" encoding="utf-8"?>
<!-- Generator: Adobe Illustrator 17.0.0, SVG Export Plug-In . SVG Version: 6.00 Build 0)  -->
<!DOCTYPE svg PUBLIC "-//W3C//DTD SVG 1.1//EN" "http://www.w3.org/Graphics/SVG/1.1/DTD/svg11.dtd">
<svg version="1.1" id="Layer_1" xmlns="http://www.w3.org/2000/svg" xmlns:xlink="http://www.w3.org/1999/xlink" x="0px" y="0px"
	 width="92.168px" height="92.168px" viewBox="0 0 92.168 92.168" enable-background="new 0 0 92.168 92.168" xml:space="preserve">
<path fill-rule="evenodd" clip-rule="evenodd" fill="#434A54" d="M28.289,92.168H63.88c4.099,0,4.76-5.209,1.983-6.888
	c-0.275-0.167-0.208-0.589,0.104-0.663c5.218-1.232,4.779-9.801-1.315-9.801h-1.32c-0.343,0-0.493-0.443-0.22-0.651
	c2.216-1.691,1.526-6.095-2.072-6.095c-0.245,0-0.551,0.018-0.602-0.306l-5.691-36.161c-0.032-0.207,0.116-0.397,0.323-0.417
	c4.417-0.426,4.271-7.338-0.435-7.338h-3.17c-1.817,0-1.649,0.157-0.179-0.678c5.47-3.105,9.03-8.929,9.998-17.189
	c0.014-0.122-0.03-0.235-0.123-0.316c-0.51-0.442-1.021-0.885-1.531-1.326c-0.183-0.159-0.469-0.095-0.568,0.126
	c-0.746,1.664-1.492,3.328-2.238,4.992c-0.11,0.246-0.446,0.289-0.614,0.077c-1.311-1.651-1.56-4.675-6.472-3.484
	c-0.305,0.074-0.555-0.254-0.402-0.529C50.662,3.134,48.942,0,46.084,0c-2.858,0-4.579,3.134-3.252,5.521
	c0.152,0.275-0.098,0.603-0.402,0.529c-4.912-1.191-5.162,1.834-6.472,3.484c-0.167,0.212-0.504,0.169-0.614-0.077
	c-0.746-1.664-1.493-3.328-2.239-4.992c-0.099-0.221-0.385-0.285-0.568-0.126c-0.51,0.442-1.021,0.885-1.531,1.326
	c-0.093,0.081-0.137,0.193-0.122,0.316c0.963,8.218,3.766,14.194,9.771,17.179c0.994,0.494,1.267,0.687-0.161,0.687h-2.96
	c-4.707,0-4.852,6.911-0.435,7.338c0.207,0.02,0.355,0.211,0.323,0.417L31.73,67.763c-0.051,0.325-0.357,0.306-0.602,0.306
	c-3.598,0-4.288,4.404-2.072,6.095c0.273,0.208,0.124,0.651-0.22,0.651h-1.32c-6.094,0-6.532,8.569-1.314,9.801
	c0.313,0.074,0.38,0.496,0.105,0.663C23.529,86.959,24.189,92.168,28.289,92.168L28.289,92.168z M31.152,87.314
	c-0.806,0.418-1.269,0.952-1.288,1.633c-0.003,0.146-0.123,0.261-0.268,0.261c-0.543,0-1.085,0-1.628,0
	c-0.139,0-0.255-0.105-0.267-0.244c-0.158-1.763,1.141-2.331,3.349-2.155C31.629,86.855,31.859,86.947,31.152,87.314L31.152,87.314z
	 M32.732,76.8c-3.55,0.081-6.191,1.057-5.916,3.756c0.239,2.362,4.199,1.866,4.084,0c-0.081-1.317,0.712-2.298,2.027-3.083
	C33.801,76.951,34.483,76.759,32.732,76.8L32.732,76.8z M38.998,36.908c0.398-2.467,2.427-2.176,2.149,0.282
	c-1.099,9.694-2.337,19.372-3.383,29.072c-0.273,2.524-0.864,4.662-2.384,6.011c-2.421,2.151-4.63-0.701-3.364-1.922
	c1.063-1.025,2.26-1.531,2.685-4.543C36.06,56.164,37.446,46.523,38.998,36.908L38.998,36.908z M38.67,11.468
	c0.326-0.943,0.959-0.931,1.078,0.113c0.303,2.654,0.974,5.282,3.051,7.861c0.167,0.207,0.058,0.522-0.202,0.582
	C38.679,20.908,37.123,15.941,38.67,11.468L38.67,11.468z"/>
</svg>
