<?xml version="1.0" encoding="utf-8"?>
<!-- Generator: Adobe Illustrator 17.0.0, SVG Export Plug-In . SVG Version: 6.00 Build 0)  -->
<!DOCTYPE svg PUBLIC "-//W3C//DTD SVG 1.1//EN" "http://www.w3.org/Graphics/SVG/1.1/DTD/svg11.dtd">
<svg version="1.1" id="Layer_1" xmlns="http://www.w3.org/2000/svg" xmlns:xlink="http://www.w3.org/1999/xlink" x="0px" y="0px"
	 width="92.168px" height="92.168px" viewBox="0 0 92.168 92.168" enable-background="new 0 0 92.168 92.168" xml:space="preserve">
<path fill-rule="evenodd" clip-rule="evenodd" fill="#fff" d="M22.862,92.168h46.444c6.064,0,6.064-8.999,0-8.999h-2.509
	c-0.425,0-0.628-0.535-0.32-0.818c3.732-3.441,3.632-10.055-3.577-12.05c-4.374-1.21-5.267-6.541-0.826-8.658
	c0.88-0.419,0.801-0.248,1.719-0.248c6.553,0,5.043-10.439-1.242-8.584c-0.211,0.062-0.431-0.025-0.542-0.215
	c-3.644-6.277-5.61-14.76-6.168-24.576c-0.015-0.278,0.167-0.528,0.445-0.542c4.21-0.204,5.499-5.713,2.294-7.952
	c-0.282-0.197-0.263-0.624,0.035-0.797l1.224-0.703c0.094-0.055,0.192-0.075,0.3-0.06c4.451,0.612,5.309-1.471,5.831-3.572
	c0.924-3.71,1.242-7.546,1.886-11.315C68.155,1.328,67.969,0,65.916,0h-7.82c-1.919,0-2.853,1.108-2.718,3.025
	c0.094,1.345,0.004,2.699,0,4.049c-0.009,2.677-2.649,2.209-2.606,0c0.027-1.405-0.144-2.819,0-4.216
	C53.022,0.418,51.664,0,49.554,0h-6.94c-2.111,0-3.469,0.418-3.216,2.858c0.145,1.397-0.027,2.811,0,4.216
	c0.042,2.209-2.599,2.677-2.607,0c-0.004-1.35-0.094-2.704,0-4.049C36.926,1.108,35.991,0,34.073,0h-7.821
	c-2.054,0-2.24,1.328-1.941,3.08c0.644,3.769,0.962,7.605,1.886,11.315c0.524,2.101,1.381,4.184,5.831,3.572
	c0.108-0.015,0.205,0.004,0.3,0.06l1.224,0.703c0.299,0.172,0.317,0.599,0.035,0.797c-3.205,2.239-1.915,7.748,2.295,7.952
	c0.278,0.014,0.459,0.264,0.444,0.542c-0.557,9.817-2.524,18.299-6.168,24.576c-0.111,0.19-0.33,0.278-0.542,0.215
	c-6.284-1.855-7.794,8.584-1.242,8.584c0.92,0,0.84-0.171,1.72,0.248c4.44,2.117,3.548,7.448-0.826,8.658
	c-7.209,1.995-7.309,8.608-3.578,12.05c0.314,0.288,0.107,0.818-0.32,0.818h-2.508C16.798,83.169,16.798,92.168,22.862,92.168
	L22.862,92.168z M31.389,80.919c2.092,1.613,2.389,0.511,2.264-1.161c-0.346-4.651,4.856-4.201,5.416-12.056
	c0.122-1.705-0.022-1.641-0.871-0.284C34.155,73.882,24.391,75.519,31.389,80.919L31.389,80.919z M30.017,85.727
	c-1.421,0.738-2.236,1.678-2.269,2.878c-0.007,0.256-0.216,0.459-0.472,0.459c-0.957,0-1.913,0-2.869,0
	c-0.245,0-0.449-0.186-0.47-0.43c-0.278-3.108,2.01-4.111,5.901-3.797C30.856,84.918,31.26,85.082,30.017,85.727L30.017,85.727z
	 M37.633,47.502c-1.167,3.8,1.987,5.561,3.265,2.081c2.271-6.183,2.146-12.599,0.407-19.19c-0.281-1.064-0.584-0.825-0.577,0.131
	C40.774,36.762,39.279,42.146,37.633,47.502L37.633,47.502z M31.39,2.742c-1.81-0.068-2.946,0.947-3.141,2.612
	c-0.323,2.746,0.662,5.211,1.719,7.709c1.557,3.679,3.57,1.363,2.441-0.998c-1.642-3.433-2.331-6.301-0.657-8.569
	C31.975,3.192,31.767,2.757,31.39,2.742L31.39,2.742z"/>
</svg>
