<?xml version="1.0" encoding="utf-8"?>
<!-- Generator: Adobe Illustrator 17.0.0, SVG Export Plug-In . SVG Version: 6.00 Build 0)  -->
<!DOCTYPE svg PUBLIC "-//W3C//DTD SVG 1.1//EN" "http://www.w3.org/Graphics/SVG/1.1/DTD/svg11.dtd">
<svg version="1.1" id="Layer_1" xmlns="http://www.w3.org/2000/svg" xmlns:xlink="http://www.w3.org/1999/xlink" x="0px" y="0px"
	 width="92.168px" height="92.168px" viewBox="0 0 92.168 92.168" enable-background="new 0 0 92.168 92.168" xml:space="preserve">
<path fill-rule="evenodd" clip-rule="evenodd" fill="#fff" d="M24.234,92.168h43.7c1.788,0,3.251-1.5,3.251-3.334v-4.709
	c0-1.833-1.463-3.334-3.251-3.334h-1.91c-0.157,0-0.292-0.081-0.366-0.22c-7.463-14.093-9.554-28.185-8.504-42.279
	c0.014-0.186,0.146-0.336,0.329-0.374c4.415-0.906,4.096-8.078-0.957-8.078H54.08c-0.385,0-0.56-0.491-0.262-0.734
	c2.746-2.243,4.499-5.656,4.499-9.477c0-3.208-1.28-5.847-3.164-8.263L46.41,0.159c-0.165-0.212-0.487-0.212-0.653,0L36.879,11.54
	c-1.853,2.375-3.028,4.99-3.028,8.09c0,3.821,1.753,7.233,4.499,9.477c0.298,0.244,0.123,0.734-0.262,0.734h-2.446
	c-5.054,0-5.372,7.172-0.957,8.078c0.183,0.037,0.316,0.187,0.329,0.374c1.051,14.093-1.041,28.186-8.504,42.279
	c-0.073,0.139-0.209,0.22-0.366,0.22h-1.91c-1.788,0-3.251,1.501-3.251,3.334v4.709C20.983,90.668,22.446,92.168,24.234,92.168
	L24.234,92.168z M44.616,6.541c2.03-1.952,3.532-0.864,2.072,1.49c-2.741,4.418-5.546,8.654-4.727,12.563
	c0.581,2.771-1.178,4.228-3.173,2.526C34.139,19.153,37.726,13.168,44.616,6.541L44.616,6.541z M34.086,75.553
	c-1.396,2.101,0.259,3.908,3.132,1.522c3.381-2.809,3.901-10.195,3.479-18.242c-0.108-2.065-0.598-1.983-0.825-0.026
	C39.154,65.013,37.342,70.653,34.086,75.553L34.086,75.553z"/>
</svg>
