<?xml version="1.0" encoding="utf-8"?>
<!-- Generator: Adobe Illustrator 17.0.0, SVG Export Plug-In . SVG Version: 6.00 Build 0)  -->
<!DOCTYPE svg PUBLIC "-//W3C//DTD SVG 1.1//EN" "http://www.w3.org/Graphics/SVG/1.1/DTD/svg11.dtd">
<svg version="1.1" id="Layer_1" xmlns="http://www.w3.org/2000/svg" xmlns:xlink="http://www.w3.org/1999/xlink" x="0px" y="0px"
	 width="92.168px" height="92.168px" viewBox="0 0 92.168 92.168" enable-background="new 0 0 92.168 92.168" xml:space="preserve">
<path fill-rule="evenodd" clip-rule="evenodd" fill="#434A54" d="M26.979,92.168h38.21c1.724,0,3.134-1.41,3.134-3.134v-3.492
	c0-1.724-1.411-3.135-3.134-3.135h-1.245c-0.13,0-0.242-0.061-0.312-0.171C53.385,66.29,51.745,50.884,54.929,35.778
	c0.037-0.173,0.186-0.294,0.363-0.294h0.921c3.997,0,3.996-6.055,0-6.055h-1.371c-0.247,0-0.427-0.24-0.356-0.478l3.943-13.145
	c0.06-0.199-0.056-0.409-0.256-0.464c-2.732-0.76-5.464-1.52-8.195-2.28c-0.297-0.083-0.402-0.598-0.179-0.804
	c0.092-0.084,0.21-0.116,0.333-0.088l4.074,0.917c0.278,0.062,0.522-0.203,0.436-0.475c-0.885-2.788-0.615-5.746,0.059-8.568
	c0.066-0.277-0.197-0.525-0.47-0.441c-1.339,0.408-2.678,0.816-4.018,1.223c-0.289,0.088-0.559-0.193-0.459-0.478
	c0.451-1.285,0.904-2.568,1.355-3.852c0.102-0.29-0.179-0.574-0.47-0.475c-2.898,0.989-6.215,0.989-9.114,0
	c-0.291-0.099-0.572,0.184-0.471,0.475c0.452,1.284,0.904,2.567,1.355,3.852c0.1,0.285-0.17,0.566-0.458,0.478
	c-1.339-0.407-2.679-0.814-4.018-1.223c-0.273-0.083-0.535,0.164-0.47,0.441c0.674,2.823,0.945,5.78,0.06,8.568
	c-0.086,0.272,0.158,0.537,0.436,0.475l4.074-0.917c0.546-0.123,0.592,0.77,0.154,0.892c-2.731,0.76-5.463,1.52-8.195,2.28
	c-0.2,0.055-0.315,0.265-0.256,0.464L37.68,28.95c0.072,0.238-0.108,0.478-0.356,0.478h-1.37c-3.996,0-3.996,6.055,0,6.055h0.92
	c0.178,0,0.327,0.121,0.364,0.294c3.184,15.106,1.545,30.513-8.702,46.458c-0.07,0.109-0.182,0.171-0.313,0.171h-1.245
	c-1.724,0-3.134,1.411-3.134,3.135v3.492C23.845,90.758,25.255,92.168,26.979,92.168L26.979,92.168z M39.518,18.01
	c2.108-1.324,4.217-2.649,6.325-3.973c0.302-0.19,0.677,0.124,0.541,0.455c-0.553,1.35-1.106,2.699-1.659,4.047
	c-0.049,0.12-0.146,0.199-0.272,0.224c-1.849,0.367-3.406,0.257-4.824-0.077C39.312,18.611,39.241,18.184,39.518,18.01L39.518,18.01
	z M35.14,76.176c-1.954,3.392,1.717,5.609,3.766,2.54c3.639-5.452,4.341-11.544,3.069-18.085c-0.205-1.056-0.613-0.884-0.733,0.023
	C40.465,66.564,37.894,71.396,35.14,76.176L35.14,76.176z"/>
</svg>
