<?xml version="1.0" encoding="utf-8"?>
<!-- Generator: Adobe Illustrator 17.0.0, SVG Export Plug-In . SVG Version: 6.00 Build 0)  -->
<!DOCTYPE svg PUBLIC "-//W3C//DTD SVG 1.1//EN" "http://www.w3.org/Graphics/SVG/1.1/DTD/svg11.dtd">
<svg version="1.1" id="Layer_1" xmlns="http://www.w3.org/2000/svg" xmlns:xlink="http://www.w3.org/1999/xlink" x="0px" y="0px"
	 width="92.168px" height="92.168px" viewBox="0 0 92.168 92.168" enable-background="new 0 0 92.168 92.168" xml:space="preserve">
<path fill-rule="evenodd" clip-rule="evenodd" fill="#434A54" d="M19.134,92.168h54.869c1.682,0,3.059-1.359,3.059-3.02V81.42
	c0-1.661-1.377-3.019-3.059-3.019H63.484c-0.433,0-0.671-0.51-0.393-0.843c22.657-27.242,10.639-44.551-2.967-60.722
	C53.905,9.442,46.264,4.649,38.825,0.68c-2.406-1.283-3.723-0.782-3.536,1.769c0.118,1.606-0.31,3.207-0.465,4.81
	c-0.011,0.117-0.056,0.215-0.137,0.302c-5.881,6.28-11.497,12.82-17.643,18.84c-1.903,1.864-2.329,3.621-1.608,5.546
	c0.661,1.765,1.647,3.423,2.813,4.903c1.261,1.602,3.333,2.404,6.35,1.125c2.99-1.268,6.116-1.44,9.549-0.133
	c0.207,0.079,0.431,0.021,0.575-0.148c1.675-1.98,3.353-3.961,5.028-5.943c0.312-0.368,0.923-0.131,0.905,0.351
	c-0.443,12.059-8.15,20.24-16.54,27.815c-2.589,2.338-3.602,4.651-2.25,7.153c1.97,3.645,4.329,7.066,6.597,10.538
	c0.222,0.339-0.025,0.795-0.43,0.795h-8.9c-1.682,0-3.058,1.358-3.058,3.019v7.728C16.076,90.809,17.452,92.168,19.134,92.168
	L19.134,92.168z M34.574,57.978c-3.57,3.931,0.795,7.884,4.407,4.405c6.414-6.177,9.027-14.023,9.087-23.013
	c0.01-1.452-0.588-1.338-0.998-0.174C44.406,46.781,39.607,52.439,34.574,57.978L34.574,57.978z M25.08,26.692
	c-3.351,3.395-0.145,6.069,2.684,2.725c3.864-4.569,8.026-10.742,11.559-15.57c1.456-1.99,0.972-2.404-0.776-0.667
	C34.379,17.322,29.21,22.51,25.08,26.692L25.08,26.692z"/>
</svg>
