<?xml version="1.0" encoding="utf-8"?>
<!-- Generator: Adobe Illustrator 17.0.0, SVG Export Plug-In . SVG Version: 6.00 Build 0)  -->
<!DOCTYPE svg PUBLIC "-//W3C//DTD SVG 1.1//EN" "http://www.w3.org/Graphics/SVG/1.1/DTD/svg11.dtd">
<svg version="1.1" id="Layer_1" xmlns="http://www.w3.org/2000/svg" xmlns:xlink="http://www.w3.org/1999/xlink" x="0px" y="0px"
	 width="92.168px" height="92.168px" viewBox="0 0 92.168 92.168" enable-background="new 0 0 92.168 92.168" xml:space="preserve">
<path fill-rule="evenodd" clip-rule="evenodd" fill="#fff" d="M26.08,92.168h40.008c1.802,0,3.276-1.436,3.276-3.193v-3.172
	c0-1.757-1.474-3.193-3.276-3.193h-2.354c-0.14,0-0.26-0.069-0.33-0.189c-9.738-16.592-10.634-32.406-7.315-47.85
	c0.036-0.169,0.176-0.288,0.348-0.3c4.284-0.288,4.176-7.092-0.04-7.092h-2.142c-0.247,0-0.43-0.235-0.37-0.475
	c0.838-3.353,3.132-6.078,3.132-9.607c0-5.066-3.439-9.33-8.109-10.585c-0.266-0.072-0.371-0.396-0.197-0.61
	C50.452,3.764,49.211,0,46.103,0c-3.099,0-4.344,3.744-2.622,5.886c0.172,0.215,0.065,0.539-0.201,0.608
	c-4.707,1.229-8.182,5.511-8.182,10.603c0,3.529,2.294,6.254,3.132,9.607c0.06,0.24-0.123,0.475-0.37,0.475h-2.141
	c-4.217,0-4.324,6.803-0.04,7.092c0.172,0.012,0.312,0.131,0.348,0.3c3.319,15.444,2.423,31.258-7.316,47.85
	c-0.07,0.12-0.191,0.189-0.33,0.189H26.08c-1.802,0-3.276,1.436-3.276,3.193v3.172C22.803,90.732,24.277,92.168,26.08,92.168
	L26.08,92.168z M35.943,75.126c-1.87,3.281,0.94,5.567,2.769,2.539c3.199-5.296,3.773-14.861,2.914-21.788
	c-0.133-1.074-0.466-0.9-0.559,0.037C40.435,62.272,38.518,70.611,35.943,75.126L35.943,75.126z M38.436,16.172
	c-0.664,3,2.651,4.296,2.929,1.587c0.254-2.467,1.814-4.512,4.294-5.699c1.93-0.924,1.446-2.452-0.447-2.209
	C40.64,10.439,39.119,13.089,38.436,16.172L38.436,16.172z"/>
</svg>
