<?xml version="1.0" encoding="utf-8"?>
<!-- Generator: Adobe Illustrator 17.0.0, SVG Export Plug-In . SVG Version: 6.00 Build 0)  -->
<!DOCTYPE svg PUBLIC "-//W3C//DTD SVG 1.1//EN" "http://www.w3.org/Graphics/SVG/1.1/DTD/svg11.dtd">
<svg version="1.1" id="Layer_1" xmlns="http://www.w3.org/2000/svg" xmlns:xlink="http://www.w3.org/1999/xlink" x="0px" y="0px"
	 width="92.168px" height="92.168px" viewBox="0 0 92.168 92.168" enable-background="new 0 0 92.168 92.168" xml:space="preserve">
<path fill-rule="evenodd" clip-rule="evenodd" fill="#434A54" d="M19.966,92.168h52.235c2.69,0,4.892-2.201,4.892-4.892v-5.518
	c0-2.691-2.202-4.892-4.892-4.892c-0.532,0-2.121,0.25-2.489-0.185C50.916,54.491,55.044,36.399,61.6,20.463
	c0.073-0.178,0.226-0.295,0.417-0.32c3.061-0.384,5.18-1.996,5.092-6.829c-0.057-3.158-0.129-6.319,0-9.475
	C67.206,1.48,65.554,0,63.189,0h-2.583c-0.287,0-0.522,0.234-0.522,0.522v7.696c0,0.288-0.234,0.522-0.522,0.522
	c-2.565,0-5.131,0-7.697,0c-0.288,0-0.522-0.235-0.522-0.522c0-2.565,0-5.131,0-7.696C51.344,0.234,51.109,0,50.822,0
	c-3.301,0-6.602,0-9.902,0c-0.288,0-0.522,0.234-0.522,0.522c0,2.564,0,5.13,0,7.696c0,0.288-0.234,0.522-0.521,0.522
	c-2.566,0-5.132,0-7.697,0c-0.287,0-0.522-0.235-0.522-0.522V0.522C31.656,0.234,31.422,0,31.135,0h-2.582
	c-2.365,0-4.018,1.48-3.921,3.839c0.129,3.156,0.057,6.317,0,9.475c-0.088,4.833,2.03,6.445,5.092,6.829
	c0.192,0.025,0.344,0.141,0.417,0.32c6.556,15.936,10.685,34.029-8.113,56.219c-0.338,0.399-1.587,0.185-2.062,0.185
	c-2.691,0-4.892,2.202-4.892,4.892v5.518C15.074,89.966,17.275,92.168,19.966,92.168L19.966,92.168z M31.454,73.898
	c-2.081,2.409-0.657,5.876,3.316,3.346c4.677-2.978,5.578-11.523,6.326-21.66c0.191-2.6-0.434-2.576-1.028-0.163
	C38.187,63.073,36.305,68.282,31.454,73.898L31.454,73.898z"/>
</svg>
